# xmcd
#
# Track frame offsets: 
#        183
#        17745
#        39983
#        56775
#        74703
#        90620
#        112298
#        135165
#        155510
#
# Disc length: 2398 seconds
#
# Revision: 1
# Processed by: cddbd v1.5.2PL0 Copyright (c) Steve Scherf et al.
# Submitted via: ExactAudioCopy v0.99pb5
#
DISCID=7a095c09
DTITLE=신촌 Blues - Vol. II
DYEAR=1900
DGENRE=
TTITLE0=황혼
TTITLE1=바람인가,빗속에서
TTITLE2=산 위에 올라
TTITLE3=환상
TTITLE4=아무말도  없이 떠나요
TTITLE5=골목길
TTITLE6=또 하나의 내가 있다면
TTITLE7=빗속에 서있는 여자
TTITLE8=루씰(LUCILLE)
EXTD=
EXTT0=
EXTT1=
EXTT2=
EXTT3=
EXTT4=
EXTT5=
EXTT6=
EXTT7=
EXTT8=
PLAYORDER=
